<svg width="64" height="64" version="1.1" viewBox="0 0 64 64" xml:space="preserve" xmlns="http://www.w3.org/2000/svg">
  
  <g transform="matrix(1.25,0,0,-1.25,0,700)">
    <g transform="matrix(1.5248 0 0 1.5248 610.17 -54.074)">
      <path d="m-362.83 369.19c0.0882 2.7622-0.0421 3.9918-0.16226 8.5879 0.17229 2.519-0.97428 9.7933-6.8242 14.463-5.8499 4.6702-11.256 6.1229-11.983 6.6043-0.7882 0.52149-3.9628 1.9813-4.7123 2.3304-0.74945 0.3492-3.7796 0.73593-5.1388 0.90931-1.3592 0.17338-2.7923-0.31483-3.3422-0.31919-0.5499-3e-3 -3.6489 0.94774-4.1206 0.94774-0.47171 0-0.18871-0.4717-0.14154-0.7548 0.0472-0.28298 1.0421-2.134 1.0421-2.134s-1.0893 0.0112-1.1364-0.2247c-0.0471-0.23585 1.2948-1.2445 1.2948-1.2445s-0.63437-2.0576-0.66732-2.5221c-0.0331-0.46458 0.59908-2.0357 0.69349-2.4602 0.0943-0.42455 0-1.4153 0-1.4153l0.46868-0.47817s0.80503-0.55961 0.99375-0.65391c0.1887-0.0944 0.82461 0.0127 0.82461 0.0127 0.49433-0.17583 2.1003 0.69486 2.9496 1.2137 0.84913 0.51894 2.0286 0.66037 2.3689 0.66302 0.3402 2e-3 0.65038-1.0877 0.63619-1.444-0.0143-0.35651 0.2973-1.6721 0.39162-2.0966 0.0944-0.42454-0.43928-1.2703-0.43928-1.2703-0.48653 0.23918-1.1647 0.46834-1.5893 0.6099-0.42468 0.14152-1.7456 1.0849-2.123 1.1793-0.3774 0.0943-0.70768 0.14154-1.3776 0.32609-0.66986 0.18463-2.8684 0.66452-3.3404 0.6033-0.47191-0.0612-1.6981-0.74078-1.871-1.4346-0.1728-0.69404 0.78618-1.3817 1.1636-1.5233 0.37743-0.14145 1.5568 0.14154 1.972 0.0986 0.41525-0.0429 0.68042-0.38438 0.68042-0.38438 1.473-0.0497 2.1597-0.94075 3.0088-1.6955 0.84915-0.75479 4.8592-2.9719 5.4253-3.0663 0.56615-0.0943 2.1227 0.30226 2.1227 0.30226s0.47203-1.9061 0.66074-3.0382c0.18871-1.1322-0.61327-4.8118-0.70758-5.5194-0.0944-0.70764-0.11799-1.6039-0.29489-1.8398-0.14429-0.19245-0.29487-0.1533-1.0777-0.27154-0.93748-0.14153-1.9681-1.5222-1.9298-2.1343 0.0471-0.75479 0.86556-0.98018 1.2307-0.98018h1.2932c0.56614 0 2.1701 0.22539 2.1701 0.22539l2.5476-0.22539h15.385m-13.254 3.447c-0.8963-0.33015-1.6512-0.84909-2.2173-0.70764-0.56616 0.14155-0.80202-0.28299-1.2738-0.14145 0 0 0.47181 1.4152 0.94273 2.2231 0.47081 0.80803 1.1071 3.4396 1.1071 3.4396 0.16286-0.98892 1.1111-2.5492 1.8186-3.4927 0.7077-0.94349 0.51898-0.99072-0.37741-1.3209" stroke-width=".1014"/>
    </g>
  </g><g display="none"><rect y="699" width="949.01" height="529.55" fill="#00f" fill-rule="evenodd"/></g>
</svg>
